<svg id="visual" viewBox="0 0 900 600" width="900" height="600" xmlns="http://www.w3.org/2000/svg" xmlns:xlink="http://www.w3.org/1999/xlink" version="1.1"><path d="M0 73L10.7 75C21.3 77 42.7 81 64.2 79C85.7 77 107.3 69 128.8 67C150.3 65 171.7 69 193 72C214.3 75 235.7 77 257 77C278.3 77 299.7 75 321.2 71C342.7 67 364.3 61 385.8 61C407.3 61 428.7 67 450 69C471.3 71 492.7 69 514.2 70C535.7 71 557.3 75 578.8 74C600.3 73 621.7 67 643 64C664.3 61 685.7 61 707 64C728.3 67 749.7 73 771.2 74C792.7 75 814.3 71 835.8 71C857.3 71 878.7 75 889.3 77L900 79L900 0L889.3 0C878.7 0 857.3 0 835.8 0C814.3 0 792.7 0 771.2 0C749.7 0 728.3 0 707 0C685.7 0 664.3 0 643 0C621.7 0 600.3 0 578.8 0C557.3 0 535.7 0 514.2 0C492.7 0 471.3 0 450 0C428.7 0 407.3 0 385.8 0C364.3 0 342.7 0 321.2 0C299.7 0 278.3 0 257 0C235.7 0 214.3 0 193 0C171.7 0 150.3 0 128.8 0C107.3 0 85.7 0 64.2 0C42.7 0 21.3 0 10.7 0L0 0Z" fill="#7f47ce"></path><path d="M0 241L10.7 238C21.3 235 42.7 229 64.2 227C85.7 225 107.3 227 128.8 229C150.3 231 171.7 233 193 229C214.3 225 235.7 215 257 213C278.3 211 299.7 217 321.2 214C342.7 211 364.3 199 385.8 195C407.3 191 428.7 195 450 202C471.3 209 492.7 219 514.2 223C535.7 227 557.3 225 578.8 218C600.3 211 621.7 199 643 198C664.3 197 685.7 207 707 206C728.3 205 749.7 193 771.2 192C792.7 191 814.3 201 835.8 209C857.3 217 878.7 223 889.3 226L900 229L900 77L889.3 75C878.7 73 857.3 69 835.8 69C814.3 69 792.7 73 771.2 72C749.7 71 728.3 65 707 62C685.7 59 664.3 59 643 62C621.7 65 600.3 71 578.8 72C557.3 73 535.7 69 514.2 68C492.7 67 471.3 69 450 67C428.7 65 407.3 59 385.8 59C364.3 59 342.7 65 321.2 69C299.7 73 278.3 75 257 75C235.7 75 214.3 73 193 70C171.7 67 150.3 63 128.8 65C107.3 67 85.7 75 64.2 77C42.7 79 21.3 75 10.7 73L0 71Z" fill="#7136c6"></path><path d="M0 289L10.7 286C21.3 283 42.7 277 64.2 276C85.7 275 107.3 279 128.8 282C150.3 285 171.7 287 193 283C214.3 279 235.7 269 257 268C278.3 267 299.7 275 321.2 273C342.7 271 364.3 259 385.8 254C407.3 249 428.7 251 450 258C471.3 265 492.7 277 514.2 281C535.7 285 557.3 281 578.8 272C600.3 263 621.7 249 643 250C664.3 251 685.7 267 707 268C728.3 269 749.7 255 771.2 251C792.7 247 814.3 253 835.8 259C857.3 265 878.7 271 889.3 274L900 277L900 227L889.3 224C878.7 221 857.3 215 835.8 207C814.3 199 792.7 189 771.2 190C749.7 191 728.3 203 707 204C685.7 205 664.3 195 643 196C621.7 197 600.3 209 578.8 216C557.3 223 535.7 225 514.2 221C492.7 217 471.3 207 450 200C428.7 193 407.3 189 385.8 193C364.3 197 342.7 209 321.2 212C299.7 215 278.3 209 257 211C235.7 213 214.3 223 193 227C171.7 231 150.3 229 128.8 227C107.3 225 85.7 223 64.2 225C42.7 227 21.3 233 10.7 236L0 239Z" fill="#6323be"></path><path d="M0 331L10.7 329C21.3 327 42.7 323 64.2 323C85.7 323 107.3 327 128.8 331C150.3 335 171.7 339 193 335C214.3 331 235.7 319 257 317C278.3 315 299.7 323 321.2 322C342.7 321 364.3 311 385.8 308C407.3 305 428.7 309 450 314C471.3 319 492.7 325 514.2 327C535.7 329 557.3 327 578.8 318C600.3 309 621.7 293 643 294C664.3 295 685.7 313 707 316C728.3 319 749.7 307 771.2 304C792.7 301 814.3 307 835.8 312C857.3 317 878.7 321 889.3 323L900 325L900 275L889.3 272C878.7 269 857.3 263 835.8 257C814.3 251 792.7 245 771.2 249C749.7 253 728.3 267 707 266C685.7 265 664.3 249 643 248C621.7 247 600.3 261 578.8 270C557.3 279 535.7 283 514.2 279C492.7 275 471.3 263 450 256C428.7 249 407.3 247 385.8 252C364.3 257 342.7 269 321.2 271C299.7 273 278.3 265 257 266C235.7 267 214.3 277 193 281C171.7 285 150.3 283 128.8 280C107.3 277 85.7 273 64.2 274C42.7 275 21.3 281 10.7 284L0 287Z" fill="#5308b6"></path><path d="M0 373L10.7 370C21.3 367 42.7 361 64.2 360C85.7 359 107.3 363 128.8 370C150.3 377 171.7 387 193 383C214.3 379 235.7 361 257 357C278.3 353 299.7 363 321.2 365C342.7 367 364.3 361 385.8 357C407.3 353 428.7 351 450 353C471.3 355 492.7 361 514.2 363C535.7 365 557.3 363 578.8 356C600.3 349 621.7 337 643 340C664.3 343 685.7 361 707 365C728.3 369 749.7 359 771.2 357C792.7 355 814.3 361 835.8 366C857.3 371 878.7 375 889.3 377L900 379L900 323L889.3 321C878.7 319 857.3 315 835.8 310C814.3 305 792.7 299 771.2 302C749.7 305 728.3 317 707 314C685.7 311 664.3 293 643 292C621.7 291 600.3 307 578.8 316C557.3 325 535.7 327 514.2 325C492.7 323 471.3 317 450 312C428.7 307 407.3 303 385.8 306C364.3 309 342.7 319 321.2 320C299.7 321 278.3 313 257 315C235.7 317 214.3 329 193 333C171.7 337 150.3 333 128.8 329C107.3 325 85.7 321 64.2 321C42.7 321 21.3 325 10.7 327L0 329Z" fill="#4a0ba6"></path><path d="M0 451L10.7 450C21.3 449 42.7 447 64.2 451C85.7 455 107.3 465 128.8 469C150.3 473 171.7 471 193 461C214.3 451 235.7 433 257 432C278.3 431 299.7 447 321.2 453C342.7 459 364.3 455 385.8 451C407.3 447 428.7 443 450 444C471.3 445 492.7 451 514.2 451C535.7 451 557.3 445 578.8 439C600.3 433 621.7 427 643 430C664.3 433 685.7 445 707 449C728.3 453 749.7 449 771.2 446C792.7 443 814.3 441 835.8 446C857.3 451 878.7 463 889.3 469L900 475L900 377L889.3 375C878.7 373 857.3 369 835.8 364C814.3 359 792.7 353 771.2 355C749.7 357 728.3 367 707 363C685.7 359 664.3 341 643 338C621.7 335 600.3 347 578.8 354C557.3 361 535.7 363 514.2 361C492.7 359 471.3 353 450 351C428.7 349 407.3 351 385.8 355C364.3 359 342.7 365 321.2 363C299.7 361 278.3 351 257 355C235.7 359 214.3 377 193 381C171.7 385 150.3 375 128.8 368C107.3 361 85.7 357 64.2 358C42.7 359 21.3 365 10.7 368L0 371Z" fill="#420d96"></path><path d="M0 601L10.7 601C21.3 601 42.7 601 64.2 601C85.7 601 107.3 601 128.8 601C150.3 601 171.7 601 193 601C214.3 601 235.7 601 257 601C278.3 601 299.7 601 321.2 601C342.7 601 364.3 601 385.8 601C407.3 601 428.7 601 450 601C471.3 601 492.7 601 514.2 601C535.7 601 557.3 601 578.8 601C600.3 601 621.7 601 643 601C664.3 601 685.7 601 707 601C728.3 601 749.7 601 771.2 601C792.7 601 814.3 601 835.8 601C857.3 601 878.7 601 889.3 601L900 601L900 473L889.3 467C878.7 461 857.3 449 835.8 444C814.3 439 792.7 441 771.2 444C749.7 447 728.3 451 707 447C685.7 443 664.3 431 643 428C621.7 425 600.3 431 578.8 437C557.3 443 535.7 449 514.2 449C492.7 449 471.3 443 450 442C428.7 441 407.3 445 385.8 449C364.3 453 342.7 457 321.2 451C299.7 445 278.3 429 257 430C235.7 431 214.3 449 193 459C171.7 469 150.3 471 128.8 467C107.3 463 85.7 453 64.2 449C42.7 445 21.3 447 10.7 448L0 449Z" fill="#3a0e86"></path></svg>